<?xml version="1.0" encoding="UTF-8" standalone="no"?>
<svg
   width="69.732pt"
   height="69.732pt"
   viewBox="0 0 69.732 69.732"
   version="1.1"
   id="svg228"
   sodipodi:docname="dark_only.pdf"
   xmlns:inkscape="http://www.inkscape.org/namespaces/inkscape"
   xmlns:sodipodi="http://sodipodi.sourceforge.net/DTD/sodipodi-0.dtd"
   xmlns="http://www.w3.org/2000/svg"
   xmlns:svg="http://www.w3.org/2000/svg">
  <sodipodi:namedview
     id="namedview230"
     pagecolor="#505050"
     bordercolor="#eeeeee"
     borderopacity="1"
     inkscape:showpageshadow="0"
     inkscape:pageopacity="0"
     inkscape:pagecheckerboard="0"
     inkscape:deskcolor="#505050"
     inkscape:document-units="pt" />
  <defs
     id="defs80">
    <clipPath
       id="clip-0">
      <path
         clip-rule="nonzero"
         d="M 66 33 L 69.730469 33 L 69.730469 37 L 66 37 Z M 66 33 "
         id="path2" />
    </clipPath>
    <clipPath
       id="clip-1">
      <path
         clip-rule="nonzero"
         d="M 66 27 L 69.730469 27 L 69.730469 31 L 66 31 Z M 66 27 "
         id="path5" />
    </clipPath>
    <clipPath
       id="clip-2">
      <path
         clip-rule="nonzero"
         d="M 27 66 L 31 66 L 31 69.730469 L 27 69.730469 Z M 27 66 "
         id="path8" />
    </clipPath>
    <clipPath
       id="clip-3">
      <path
         clip-rule="nonzero"
         d="M 33 66 L 37 66 L 37 69.730469 L 33 69.730469 Z M 33 66 "
         id="path11" />
    </clipPath>
    <clipPath
       id="clip-4">
      <path
         clip-rule="nonzero"
         d="M 39 66 L 43 66 L 43 69.730469 L 39 69.730469 Z M 39 66 "
         id="path14" />
    </clipPath>
    <clipPath
       id="clip-5">
      <path
         clip-rule="nonzero"
         d="M 66 39 L 69.730469 39 L 69.730469 43 L 66 43 Z M 66 39 "
         id="path17" />
    </clipPath>
    <clipPath
       id="clip-6">
      <path
         clip-rule="nonzero"
         d="M 66 33 L 69.730469 33 L 69.730469 37 L 66 37 Z M 66 33 "
         id="path20" />
    </clipPath>
    <clipPath
       id="clip-7">
      <path
         clip-rule="nonzero"
         d="M 0 0 L 69.730469 0 L 69.730469 69.730469 L 0 69.730469 Z M 0 0 "
         id="path23" />
    </clipPath>
    <clipPath
       id="clip-8">
      <path
         clip-rule="nonzero"
         d="M 6 6 L 64 6 L 64 64 L 6 64 Z M 6 6 "
         id="path26" />
    </clipPath>
    <clipPath
       id="clip-9">
      <path
         clip-rule="nonzero"
         d="M 63.210938 34.867188 C 63.210938 19.210938 50.523438 6.519531 34.867188 6.519531 C 19.210938 6.519531 6.519531 19.210938 6.519531 34.867188 C 6.519531 50.523438 19.210938 63.210938 34.867188 63.210938 C 50.523438 63.210938 63.210938 50.523438 63.210938 34.867188 Z M 63.210938 34.867188 "
         id="path29" />
    </clipPath>
    <clipPath
       id="clip-10">
      <path
         clip-rule="nonzero"
         d="M 33.449219 23.527344 C 33.449219 20.394531 30.910156 17.859375 27.78125 17.859375 C 24.648438 17.859375 22.109375 20.394531 22.109375 23.527344 C 22.109375 26.660156 24.648438 29.195312 27.78125 29.195312 C 30.910156 29.195312 33.449219 26.660156 33.449219 23.527344 Z M 574.871094 -685.144531 L 574.871094 106.867188 L -37.136719 106.867188 L -37.136719 -685.144531 L 574.871094 -685.144531 "
         id="path32" />
    </clipPath>
    <clipPath
       id="clip-11">
      <path
         clip-rule="nonzero"
         d="M 53.007812 29.765625 C 53.007812 26.632812 50.46875 24.09375 47.339844 24.09375 C 44.207031 24.09375 41.667969 26.632812 41.667969 29.765625 C 41.667969 32.894531 44.207031 35.433594 47.339844 35.433594 C 50.46875 35.433594 53.007812 32.894531 53.007812 29.765625 Z M 574.871094 -685.144531 L 574.871094 106.867188 L -37.136719 106.867188 L -37.136719 -685.144531 L 574.871094 -685.144531 "
         id="path35" />
    </clipPath>
    <clipPath
       id="clip-12">
      <path
         clip-rule="nonzero"
         d="M 34.867188 45.921875 C 34.867188 42.789062 32.328125 40.25 29.195312 40.25 C 26.066406 40.25 23.527344 42.789062 23.527344 45.921875 C 23.527344 49.050781 26.066406 51.589844 29.195312 51.589844 C 32.328125 51.589844 34.867188 49.050781 34.867188 45.921875 Z M 574.871094 -685.144531 L 574.871094 106.867188 L -37.136719 106.867188 L -37.136719 -685.144531 L 574.871094 -685.144531 "
         id="path38" />
    </clipPath>
    <clipPath
       id="clip-13">
      <path
         clip-rule="nonzero"
         d="M 6 6 L 64 6 L 64 63 L 6 63 Z M 6 6 "
         id="path41" />
    </clipPath>
    <clipPath
       id="clip-14">
      <path
         clip-rule="nonzero"
         d="M 63.210938 34.867188 C 63.210938 19.210938 50.523438 6.519531 34.867188 6.519531 C 19.210938 6.519531 6.519531 19.210938 6.519531 34.867188 C 6.519531 50.523438 19.210938 63.210938 34.867188 63.210938 C 50.523438 63.210938 63.210938 50.523438 63.210938 34.867188 Z M 63.210938 34.867188 "
         id="path44" />
    </clipPath>
    <clipPath
       id="clip-15">
      <path
         clip-rule="nonzero"
         d="M 33.449219 23.527344 C 33.449219 20.394531 30.910156 17.859375 27.78125 17.859375 C 24.648438 17.859375 22.109375 20.394531 22.109375 23.527344 C 22.109375 26.660156 24.648438 29.195312 27.78125 29.195312 C 30.910156 29.195312 33.449219 26.660156 33.449219 23.527344 Z M 574.871094 -685.144531 L 574.871094 106.867188 L -37.136719 106.867188 L -37.136719 -685.144531 L 574.871094 -685.144531 "
         id="path47" />
    </clipPath>
    <clipPath
       id="clip-16">
      <path
         clip-rule="nonzero"
         d="M 53.007812 29.765625 C 53.007812 26.632812 50.46875 24.09375 47.339844 24.09375 C 44.207031 24.09375 41.667969 26.632812 41.667969 29.765625 C 41.667969 32.894531 44.207031 35.433594 47.339844 35.433594 C 50.46875 35.433594 53.007812 32.894531 53.007812 29.765625 Z M 574.871094 -685.144531 L 574.871094 106.867188 L -37.136719 106.867188 L -37.136719 -685.144531 L 574.871094 -685.144531 "
         id="path50" />
    </clipPath>
    <clipPath
       id="clip-17">
      <path
         clip-rule="nonzero"
         d="M 34.867188 45.921875 C 34.867188 42.789062 32.328125 40.25 29.195312 40.25 C 26.066406 40.25 23.527344 42.789062 23.527344 45.921875 C 23.527344 49.050781 26.066406 51.589844 29.195312 51.589844 C 32.328125 51.589844 34.867188 49.050781 34.867188 45.921875 Z M 574.871094 -685.144531 L 574.871094 106.867188 L -37.136719 106.867188 L -37.136719 -685.144531 L 574.871094 -685.144531 "
         id="path53" />
    </clipPath>
    <clipPath
       id="clip-18">
      <path
         clip-rule="nonzero"
         d="M 6 6 L 64 6 L 64 64 L 6 64 Z M 6 6 "
         id="path56" />
    </clipPath>
    <clipPath
       id="clip-19">
      <path
         clip-rule="nonzero"
         d="M 63.210938 34.867188 C 63.210938 19.210938 50.523438 6.519531 34.867188 6.519531 C 19.210938 6.519531 6.519531 19.210938 6.519531 34.867188 C 6.519531 50.523438 19.210938 63.210938 34.867188 63.210938 C 50.523438 63.210938 63.210938 50.523438 63.210938 34.867188 Z M 63.210938 34.867188 "
         id="path59" />
    </clipPath>
    <clipPath
       id="clip-20">
      <path
         clip-rule="nonzero"
         d="M 33.449219 23.527344 C 33.449219 20.394531 30.910156 17.859375 27.78125 17.859375 C 24.648438 17.859375 22.109375 20.394531 22.109375 23.527344 C 22.109375 26.660156 24.648438 29.195312 27.78125 29.195312 C 30.910156 29.195312 33.449219 26.660156 33.449219 23.527344 Z M 574.871094 -685.144531 L 574.871094 106.867188 L -37.136719 106.867188 L -37.136719 -685.144531 L 574.871094 -685.144531 "
         id="path62" />
    </clipPath>
    <clipPath
       id="clip-21">
      <path
         clip-rule="nonzero"
         d="M 53.007812 29.765625 C 53.007812 26.632812 50.46875 24.09375 47.339844 24.09375 C 44.207031 24.09375 41.667969 26.632812 41.667969 29.765625 C 41.667969 32.894531 44.207031 35.433594 47.339844 35.433594 C 50.46875 35.433594 53.007812 32.894531 53.007812 29.765625 Z M 574.871094 -685.144531 L 574.871094 106.867188 L -37.136719 106.867188 L -37.136719 -685.144531 L 574.871094 -685.144531 "
         id="path65" />
    </clipPath>
    <clipPath
       id="clip-22">
      <path
         clip-rule="nonzero"
         d="M 34.867188 45.921875 C 34.867188 42.789062 32.328125 40.25 29.195312 40.25 C 26.066406 40.25 23.527344 42.789062 23.527344 45.921875 C 23.527344 49.050781 26.066406 51.589844 29.195312 51.589844 C 32.328125 51.589844 34.867188 49.050781 34.867188 45.921875 Z M 574.871094 -685.144531 L 574.871094 106.867188 L -37.136719 106.867188 L -37.136719 -685.144531 L 574.871094 -685.144531 "
         id="path68" />
    </clipPath>
    <clipPath
       id="clip-23">
      <path
         clip-rule="nonzero"
         d="M 6 0 L 69.730469 0 L 69.730469 69.730469 L 6 69.730469 Z M 6 0 "
         id="path71" />
    </clipPath>
    <clipPath
       id="clip-24">
      <path
         clip-rule="nonzero"
         d="M 0 5 L 69.730469 5 L 69.730469 69.730469 L 0 69.730469 Z M 0 5 "
         id="path74" />
    </clipPath>
    <clipPath
       id="clip-25">
      <path
         clip-rule="nonzero"
         d="M 0 0 L 69.730469 0 L 69.730469 69.730469 L 0 69.730469 Z M 0 0 "
         id="path77" />
    </clipPath>
  </defs>
  <g
     clip-path="url(#clip-0)"
     id="g84">
    <path
       fill-rule="nonzero"
       fill="#cfcfcf"
       fill-opacity="1"
       d="m 69.730469,34.867188 c 0,-0.785157 -0.632813,-1.417969 -1.414063,-1.417969 -0.785156,0 -1.417968,0.632812 -1.417968,1.417969 0,0.78125 0.632812,1.417968 1.417968,1.417968 0.78125,0 1.414063,-0.636718 1.414063,-1.417968 z m 0,0"
       id="path82" />
  </g>
  <g
     clip-path="url(#clip-1)"
     id="g88">
    <path
       fill-rule="nonzero"
       fill="#cfcfcf"
       fill-opacity="1"
       d="m 69.222656,29.058594 c 0,-0.785156 -0.632812,-1.417969 -1.414062,-1.417969 -0.785156,0 -1.417969,0.632813 -1.417969,1.417969 0,0.78125 0.632813,1.417968 1.417969,1.417968 0.78125,0 1.414062,-0.636718 1.414062,-1.417968 z m 0,0"
       id="path86" />
  </g>
  <path
     fill-rule="nonzero"
     fill="rgb(81.176758%, 81.176758%, 81.176758%)"
     fill-opacity="1"
     d="M 67.714844 23.425781 C 67.714844 22.644531 67.082031 22.007812 66.296875 22.007812 C 65.515625 22.007812 64.878906 22.644531 64.878906 23.425781 C 64.878906 24.207031 65.515625 24.84375 66.296875 24.84375 C 67.082031 24.84375 67.714844 24.207031 67.714844 23.425781 Z M 67.714844 23.425781 "
     id="path90" />
  <path
     fill-rule="nonzero"
     fill="rgb(81.176758%, 81.176758%, 81.176758%)"
     fill-opacity="1"
     d="M 65.25 18.140625 C 65.25 17.359375 64.617188 16.722656 63.832031 16.722656 C 63.050781 16.722656 62.417969 17.359375 62.417969 18.140625 C 62.417969 18.925781 63.050781 19.558594 63.832031 19.558594 C 64.617188 19.558594 65.25 18.925781 65.25 18.140625 Z M 65.25 18.140625 "
     id="path92" />
  <path
     fill-rule="nonzero"
     fill="rgb(81.176758%, 81.176758%, 81.176758%)"
     fill-opacity="1"
     d="M 61.90625 13.367188 C 61.90625 12.582031 61.273438 11.949219 60.488281 11.949219 C 59.707031 11.949219 59.070312 12.582031 59.070312 13.367188 C 59.070312 14.148438 59.707031 14.78125 60.488281 14.78125 C 61.273438 14.78125 61.90625 14.148438 61.90625 13.367188 Z M 61.90625 13.367188 "
     id="path94" />
  <path
     fill-rule="nonzero"
     fill="rgb(81.176758%, 81.176758%, 81.176758%)"
     fill-opacity="1"
     d="M 57.785156 9.242188 C 57.785156 8.460938 57.148438 7.824219 56.367188 7.824219 C 55.582031 7.824219 54.949219 8.460938 54.949219 9.242188 C 54.949219 10.027344 55.582031 10.660156 56.367188 10.660156 C 57.148438 10.660156 57.785156 10.027344 57.785156 9.242188 Z M 57.785156 9.242188 "
     id="path96" />
  <path
     fill-rule="nonzero"
     fill="rgb(81.176758%, 81.176758%, 81.176758%)"
     fill-opacity="1"
     d="M 53.007812 5.898438 C 53.007812 5.117188 52.375 4.480469 51.589844 4.480469 C 50.808594 4.480469 50.171875 5.117188 50.171875 5.898438 C 50.171875 6.679688 50.808594 7.316406 51.589844 7.316406 C 52.375 7.316406 53.007812 6.679688 53.007812 5.898438 Z M 53.007812 5.898438 "
     id="path98" />
  <path
     fill-rule="nonzero"
     fill="rgb(81.176758%, 81.176758%, 81.176758%)"
     fill-opacity="1"
     d="M 47.722656 3.433594 C 47.722656 2.652344 47.089844 2.015625 46.304688 2.015625 C 45.523438 2.015625 44.890625 2.652344 44.890625 3.433594 C 44.890625 4.21875 45.523438 4.851562 46.304688 4.851562 C 47.089844 4.851562 47.722656 4.21875 47.722656 3.433594 Z M 47.722656 3.433594 "
     id="path100" />
  <path
     fill-rule="nonzero"
     fill="rgb(81.176758%, 81.176758%, 81.176758%)"
     fill-opacity="1"
     d="M 42.089844 1.925781 C 42.089844 1.140625 41.457031 0.507812 40.675781 0.507812 C 39.890625 0.507812 39.257812 1.140625 39.257812 1.925781 C 39.257812 2.707031 39.890625 3.34375 40.675781 3.34375 C 41.457031 3.34375 42.089844 2.707031 42.089844 1.925781 Z M 42.089844 1.925781 "
     id="path102" />
  <path
     fill-rule="nonzero"
     fill="rgb(81.176758%, 81.176758%, 81.176758%)"
     fill-opacity="1"
     d="M 36.285156 1.417969 C 36.285156 0.632812 35.648438 0 34.867188 0 C 34.082031 0 33.449219 0.632812 33.449219 1.417969 C 33.449219 2.199219 34.082031 2.835938 34.867188 2.835938 C 35.648438 2.835938 36.285156 2.199219 36.285156 1.417969 Z M 36.285156 1.417969 "
     id="path104" />
  <path
     fill-rule="nonzero"
     fill="rgb(81.176758%, 81.176758%, 81.176758%)"
     fill-opacity="1"
     d="M 30.476562 1.925781 C 30.476562 1.140625 29.839844 0.507812 29.058594 0.507812 C 28.273438 0.507812 27.640625 1.140625 27.640625 1.925781 C 27.640625 2.707031 28.273438 3.34375 29.058594 3.34375 C 29.839844 3.34375 30.476562 2.707031 30.476562 1.925781 Z M 30.476562 1.925781 "
     id="path106" />
  <path
     fill-rule="nonzero"
     fill="rgb(81.176758%, 81.176758%, 81.176758%)"
     fill-opacity="1"
     d="M 24.84375 3.433594 C 24.84375 2.652344 24.207031 2.015625 23.425781 2.015625 C 22.644531 2.015625 22.007812 2.652344 22.007812 3.433594 C 22.007812 4.21875 22.644531 4.851562 23.425781 4.851562 C 24.207031 4.851562 24.84375 4.21875 24.84375 3.433594 Z M 24.84375 3.433594 "
     id="path108" />
  <path
     fill-rule="nonzero"
     fill="rgb(81.176758%, 81.176758%, 81.176758%)"
     fill-opacity="1"
     d="M 19.558594 5.898438 C 19.558594 5.117188 18.925781 4.480469 18.140625 4.480469 C 17.359375 4.480469 16.722656 5.117188 16.722656 5.898438 C 16.722656 6.679688 17.359375 7.316406 18.140625 7.316406 C 18.925781 7.316406 19.558594 6.679688 19.558594 5.898438 Z M 19.558594 5.898438 "
     id="path110" />
  <path
     fill-rule="nonzero"
     fill="rgb(81.176758%, 81.176758%, 81.176758%)"
     fill-opacity="1"
     d="M 14.78125 9.242188 C 14.78125 8.460938 14.148438 7.824219 13.367188 7.824219 C 12.582031 7.824219 11.949219 8.460938 11.949219 9.242188 C 11.949219 10.027344 12.582031 10.660156 13.367188 10.660156 C 14.148438 10.660156 14.78125 10.027344 14.78125 9.242188 Z M 14.78125 9.242188 "
     id="path112" />
  <path
     fill-rule="nonzero"
     fill="rgb(81.176758%, 81.176758%, 81.176758%)"
     fill-opacity="1"
     d="M 10.660156 13.367188 C 10.660156 12.582031 10.027344 11.949219 9.242188 11.949219 C 8.460938 11.949219 7.824219 12.582031 7.824219 13.367188 C 7.824219 14.148438 8.460938 14.78125 9.242188 14.78125 C 10.027344 14.78125 10.660156 14.148438 10.660156 13.367188 Z M 10.660156 13.367188 "
     id="path114" />
  <path
     fill-rule="nonzero"
     fill="rgb(81.176758%, 81.176758%, 81.176758%)"
     fill-opacity="1"
     d="M 7.316406 18.140625 C 7.316406 17.359375 6.679688 16.722656 5.898438 16.722656 C 5.117188 16.722656 4.480469 17.359375 4.480469 18.140625 C 4.480469 18.925781 5.117188 19.558594 5.898438 19.558594 C 6.679688 19.558594 7.316406 18.925781 7.316406 18.140625 Z M 7.316406 18.140625 "
     id="path116" />
  <path
     fill-rule="nonzero"
     fill="rgb(81.176758%, 81.176758%, 81.176758%)"
     fill-opacity="1"
     d="M 4.851562 23.425781 C 4.851562 22.644531 4.21875 22.007812 3.433594 22.007812 C 2.652344 22.007812 2.015625 22.644531 2.015625 23.425781 C 2.015625 24.207031 2.652344 24.84375 3.433594 24.84375 C 4.21875 24.84375 4.851562 24.207031 4.851562 23.425781 Z M 4.851562 23.425781 "
     id="path118" />
  <path
     fill-rule="nonzero"
     fill="rgb(81.176758%, 81.176758%, 81.176758%)"
     fill-opacity="1"
     d="M 3.34375 29.058594 C 3.34375 28.273438 2.707031 27.640625 1.925781 27.640625 C 1.140625 27.640625 0.507812 28.273438 0.507812 29.058594 C 0.507812 29.839844 1.140625 30.476562 1.925781 30.476562 C 2.707031 30.476562 3.34375 29.839844 3.34375 29.058594 Z M 3.34375 29.058594 "
     id="path120" />
  <path
     fill-rule="nonzero"
     fill="rgb(81.176758%, 81.176758%, 81.176758%)"
     fill-opacity="1"
     d="M 2.835938 34.867188 C 2.835938 34.082031 2.199219 33.449219 1.417969 33.449219 C 0.632812 33.449219 0 34.082031 0 34.867188 C 0 35.648438 0.632812 36.285156 1.417969 36.285156 C 2.199219 36.285156 2.835938 35.648438 2.835938 34.867188 Z M 2.835938 34.867188 "
     id="path122" />
  <path
     fill-rule="nonzero"
     fill="rgb(81.176758%, 81.176758%, 81.176758%)"
     fill-opacity="1"
     d="M 3.34375 40.675781 C 3.34375 39.890625 2.707031 39.257812 1.925781 39.257812 C 1.140625 39.257812 0.507812 39.890625 0.507812 40.675781 C 0.507812 41.457031 1.140625 42.089844 1.925781 42.089844 C 2.707031 42.089844 3.34375 41.457031 3.34375 40.675781 Z M 3.34375 40.675781 "
     id="path124" />
  <path
     fill-rule="nonzero"
     fill="rgb(81.176758%, 81.176758%, 81.176758%)"
     fill-opacity="1"
     d="M 4.851562 46.304688 C 4.851562 45.523438 4.21875 44.890625 3.433594 44.890625 C 2.652344 44.890625 2.015625 45.523438 2.015625 46.304688 C 2.015625 47.089844 2.652344 47.722656 3.433594 47.722656 C 4.21875 47.722656 4.851562 47.089844 4.851562 46.304688 Z M 4.851562 46.304688 "
     id="path126" />
  <path
     fill-rule="nonzero"
     fill="rgb(81.176758%, 81.176758%, 81.176758%)"
     fill-opacity="1"
     d="M 7.316406 51.589844 C 7.316406 50.808594 6.679688 50.171875 5.898438 50.171875 C 5.117188 50.171875 4.480469 50.808594 4.480469 51.589844 C 4.480469 52.375 5.117188 53.007812 5.898438 53.007812 C 6.679688 53.007812 7.316406 52.375 7.316406 51.589844 Z M 7.316406 51.589844 "
     id="path128" />
  <path
     fill-rule="nonzero"
     fill="rgb(81.176758%, 81.176758%, 81.176758%)"
     fill-opacity="1"
     d="M 10.660156 56.367188 C 10.660156 55.582031 10.027344 54.949219 9.242188 54.949219 C 8.460938 54.949219 7.824219 55.582031 7.824219 56.367188 C 7.824219 57.148438 8.460938 57.785156 9.242188 57.785156 C 10.027344 57.785156 10.660156 57.148438 10.660156 56.367188 Z M 10.660156 56.367188 "
     id="path130" />
  <path
     fill-rule="nonzero"
     fill="rgb(81.176758%, 81.176758%, 81.176758%)"
     fill-opacity="1"
     d="M 14.78125 60.488281 C 14.78125 59.707031 14.148438 59.070312 13.367188 59.070312 C 12.582031 59.070312 11.949219 59.707031 11.949219 60.488281 C 11.949219 61.273438 12.582031 61.90625 13.367188 61.90625 C 14.148438 61.90625 14.78125 61.273438 14.78125 60.488281 Z M 14.78125 60.488281 "
     id="path132" />
  <path
     fill-rule="nonzero"
     fill="rgb(81.176758%, 81.176758%, 81.176758%)"
     fill-opacity="1"
     d="M 19.558594 63.832031 C 19.558594 63.050781 18.925781 62.417969 18.140625 62.417969 C 17.359375 62.417969 16.722656 63.050781 16.722656 63.832031 C 16.722656 64.617188 17.359375 65.25 18.140625 65.25 C 18.925781 65.25 19.558594 64.617188 19.558594 63.832031 Z M 19.558594 63.832031 "
     id="path134" />
  <path
     fill-rule="nonzero"
     fill="rgb(81.176758%, 81.176758%, 81.176758%)"
     fill-opacity="1"
     d="M 24.84375 66.296875 C 24.84375 65.515625 24.207031 64.878906 23.425781 64.878906 C 22.644531 64.878906 22.007812 65.515625 22.007812 66.296875 C 22.007812 67.082031 22.644531 67.714844 23.425781 67.714844 C 24.207031 67.714844 24.84375 67.082031 24.84375 66.296875 Z M 24.84375 66.296875 "
     id="path136" />
  <g
     clip-path="url(#clip-2)"
     id="g140">
    <path
       fill-rule="nonzero"
       fill="#cfcfcf"
       fill-opacity="1"
       d="m 30.476562,67.808594 c 0,-0.785156 -0.636718,-1.417969 -1.417968,-1.417969 -0.785156,0 -1.417969,0.632813 -1.417969,1.417969 0,0.78125 0.632813,1.414062 1.417969,1.414062 0.78125,0 1.417968,-0.632812 1.417968,-1.414062 z m 0,0"
       id="path138" />
  </g>
  <g
     clip-path="url(#clip-3)"
     id="g144">
    <path
       fill-rule="nonzero"
       fill="#cfcfcf"
       fill-opacity="1"
       d="m 36.285156,68.316406 c 0,-0.785156 -0.636718,-1.417968 -1.417968,-1.417968 -0.785157,0 -1.417969,0.632812 -1.417969,1.417968 0,0.78125 0.632812,1.414063 1.417969,1.414063 0.78125,0 1.417968,-0.632813 1.417968,-1.414063 z m 0,0"
       id="path142" />
  </g>
  <g
     clip-path="url(#clip-4)"
     id="g148">
    <path
       fill-rule="nonzero"
       fill="#cfcfcf"
       fill-opacity="1"
       d="m 42.089844,67.808594 c 0,-0.785156 -0.632813,-1.417969 -1.414063,-1.417969 -0.785156,0 -1.417969,0.632813 -1.417969,1.417969 0,0.78125 0.632813,1.414062 1.417969,1.414062 0.78125,0 1.414063,-0.632812 1.414063,-1.414062 z m 0,0"
       id="path146" />
  </g>
  <path
     fill-rule="nonzero"
     fill="rgb(81.176758%, 81.176758%, 81.176758%)"
     fill-opacity="1"
     d="M 47.722656 66.296875 C 47.722656 65.515625 47.089844 64.878906 46.304688 64.878906 C 45.523438 64.878906 44.890625 65.515625 44.890625 66.296875 C 44.890625 67.082031 45.523438 67.714844 46.304688 67.714844 C 47.089844 67.714844 47.722656 67.082031 47.722656 66.296875 Z M 47.722656 66.296875 "
     id="path150" />
  <path
     fill-rule="nonzero"
     fill="rgb(81.176758%, 81.176758%, 81.176758%)"
     fill-opacity="1"
     d="M 53.007812 63.832031 C 53.007812 63.050781 52.375 62.417969 51.589844 62.417969 C 50.808594 62.417969 50.171875 63.050781 50.171875 63.832031 C 50.171875 64.617188 50.808594 65.25 51.589844 65.25 C 52.375 65.25 53.007812 64.617188 53.007812 63.832031 Z M 53.007812 63.832031 "
     id="path152" />
  <path
     fill-rule="nonzero"
     fill="rgb(81.176758%, 81.176758%, 81.176758%)"
     fill-opacity="1"
     d="M 57.785156 60.488281 C 57.785156 59.707031 57.148438 59.070312 56.367188 59.070312 C 55.582031 59.070312 54.949219 59.707031 54.949219 60.488281 C 54.949219 61.273438 55.582031 61.90625 56.367188 61.90625 C 57.148438 61.90625 57.785156 61.273438 57.785156 60.488281 Z M 57.785156 60.488281 "
     id="path154" />
  <path
     fill-rule="nonzero"
     fill="rgb(81.176758%, 81.176758%, 81.176758%)"
     fill-opacity="1"
     d="M 61.90625 56.367188 C 61.90625 55.582031 61.273438 54.949219 60.488281 54.949219 C 59.707031 54.949219 59.070312 55.582031 59.070312 56.367188 C 59.070312 57.148438 59.707031 57.785156 60.488281 57.785156 C 61.273438 57.785156 61.90625 57.148438 61.90625 56.367188 Z M 61.90625 56.367188 "
     id="path156" />
  <path
     fill-rule="nonzero"
     fill="rgb(81.176758%, 81.176758%, 81.176758%)"
     fill-opacity="1"
     d="M 65.25 51.589844 C 65.25 50.808594 64.617188 50.171875 63.832031 50.171875 C 63.050781 50.171875 62.417969 50.808594 62.417969 51.589844 C 62.417969 52.375 63.050781 53.007812 63.832031 53.007812 C 64.617188 53.007812 65.25 52.375 65.25 51.589844 Z M 65.25 51.589844 "
     id="path158" />
  <path
     fill-rule="nonzero"
     fill="rgb(81.176758%, 81.176758%, 81.176758%)"
     fill-opacity="1"
     d="M 67.714844 46.304688 C 67.714844 45.523438 67.082031 44.890625 66.296875 44.890625 C 65.515625 44.890625 64.878906 45.523438 64.878906 46.304688 C 64.878906 47.089844 65.515625 47.722656 66.296875 47.722656 C 67.082031 47.722656 67.714844 47.089844 67.714844 46.304688 Z M 67.714844 46.304688 "
     id="path160" />
  <g
     clip-path="url(#clip-5)"
     id="g164">
    <path
       fill-rule="nonzero"
       fill="#cfcfcf"
       fill-opacity="1"
       d="m 69.222656,40.675781 c 0,-0.785156 -0.632812,-1.417969 -1.414062,-1.417969 -0.785156,0 -1.417969,0.632813 -1.417969,1.417969 0,0.78125 0.632813,1.414063 1.417969,1.414063 0.78125,0 1.414062,-0.632813 1.414062,-1.414063 z m 0,0"
       id="path162" />
  </g>
  <g
     clip-path="url(#clip-6)"
     id="g168">
    <path
       fill-rule="nonzero"
       fill="#cfcfcf"
       fill-opacity="1"
       d="m 69.730469,34.867188 c 0,-0.785157 -0.632813,-1.417969 -1.414063,-1.417969 -0.785156,0 -1.417968,0.632812 -1.417968,1.417969 0,0.78125 0.632812,1.417968 1.417968,1.417968 0.78125,0 1.414063,-0.636718 1.414063,-1.417968 z m 0,0"
       id="path166" />
  </g>
  <g
     clip-path="url(#clip-7)"
     id="g172">
    <path
       fill="none"
       stroke-width="2.5512"
       stroke-linecap="butt"
       stroke-linejoin="miter"
       stroke="#cfcfcf"
       stroke-opacity="1"
       stroke-miterlimit="10"
       d="m 28.344938,-0.0011875 c 0,15.6562495 -12.6875,28.3476565 -28.3437505,28.3476565 -15.6562495,0 -28.3476565,-12.691407 -28.3476565,-28.3476565 0,-15.6562505 12.691407,-28.3437505 28.3476565,-28.3437505 15.6562505,0 28.3437505,12.6875 28.3437505,28.3437505 z m 0,0"
       transform="matrix(1,0,0,-1,34.866,34.866)"
       id="path170" />
  </g>
  <g
     clip-path="url(#clip-8)"
     id="g188">
    <g
       clip-path="url(#clip-9)"
       id="g186">
      <g
         clip-path="url(#clip-10)"
         id="g184">
        <g
           clip-path="url(#clip-11)"
           id="g182">
          <g
             clip-path="url(#clip-12)"
             id="g180">
            <path
               fill="none"
               stroke-width="2.5512"
               stroke-linecap="butt"
               stroke-linejoin="miter"
               stroke="#8f8f8f"
               stroke-opacity="1"
               stroke-miterlimit="10"
               d="m 106.11056,4.323031 c 0,31.3125 -25.38281,56.695313 -56.691404,56.695313 -31.3125,0 -56.695312,-25.382813 -56.695312,-56.695313 0,-31.3125 25.382812,-56.691406 56.695312,-56.691406 31.308594,0 56.691404,25.378906 56.691404,56.691406 z m 0,0"
               transform="matrix(1,0,0,-1,34.866,34.866)"
               id="path174" />
            <path
               fill="none"
               stroke-width="2.5512"
               stroke-linecap="butt"
               stroke-linejoin="miter"
               stroke="#8f8f8f"
               stroke-opacity="1"
               stroke-miterlimit="10"
               d="m 23.895719,39.08475 c 0,31.3125 -25.382813,56.695312 -56.691406,56.695312 -31.3125,0 -56.695313,-25.382812 -56.695313,-56.695312 0,-31.308594 25.382813,-56.691406 56.695313,-56.691406 31.308593,0 56.691406,25.382812 56.691406,56.691406 z m 0,0"
               transform="matrix(1,0,0,-1,34.866,34.866)"
               id="path176" />
            <path
               fill="none"
               stroke-width="2.5512"
               stroke-linecap="butt"
               stroke-linejoin="miter"
               stroke="#8f8f8f"
               stroke-opacity="1"
               stroke-miterlimit="10"
               d="m 78.993375,61.264437 c 0,31.3125 -25.382812,56.695313 -56.695312,56.695313 -31.308594,0 -56.691407,-25.382813 -56.691407,-56.695313 0,-31.308593 25.382813,-56.691406 56.691407,-56.691406 31.3125,0 56.695312,25.382813 56.695312,56.691406 z m 0,0"
               transform="matrix(1,0,0,-1,34.866,34.866)"
               id="path178" />
          </g>
        </g>
      </g>
    </g>
  </g>
  <g
     clip-path="url(#clip-13)"
     id="g200">
    <g
       clip-path="url(#clip-14)"
       id="g198">
      <g
         clip-path="url(#clip-15)"
         id="g196">
        <g
           clip-path="url(#clip-16)"
           id="g194">
          <g
             clip-path="url(#clip-17)"
             id="g192">
            <path
               fill="none"
               stroke-width="2.5512"
               stroke-linecap="butt"
               stroke-linejoin="miter"
               stroke="#8f8f8f"
               stroke-opacity="1"
               stroke-miterlimit="10"
               d="m 32.938688,65.260531 c 0,31.3125 -25.378907,56.695309 -56.691407,56.695309 -31.3125,0 -56.695312,-25.382809 -56.695312,-56.695309 0,-31.3125 25.382812,-56.691406 56.695312,-56.691406 31.3125,0 56.691407,25.378906 56.691407,56.691406 z m 0,0"
               transform="matrix(1,0,0,-1,34.866,34.866)"
               id="path190" />
          </g>
        </g>
      </g>
    </g>
  </g>
  <g
     clip-path="url(#clip-18)"
     id="g212">
    <g
       clip-path="url(#clip-19)"
       id="g210">
      <g
         clip-path="url(#clip-20)"
         id="g208">
        <g
           clip-path="url(#clip-21)"
           id="g206">
          <g
             clip-path="url(#clip-22)"
             id="g204">
            <path
               fill="none"
               stroke-width="2.5512"
               stroke-linecap="butt"
               stroke-linejoin="miter"
               stroke="#8f8f8f"
               stroke-opacity="1"
               stroke-miterlimit="10"
               d="m 33.426969,-63.930875 c 0,31.3125 -25.382813,56.695312 -56.695313,56.695312 -31.3125,0 -56.695312,-25.382812 -56.695312,-56.695312 0,-31.308594 25.382812,-56.691405 56.695312,-56.691405 31.3125,0 56.695313,25.382811 56.695313,56.691405 z m 0,0"
               transform="matrix(1,0,0,-1,34.866,34.866)"
               id="path202" />
          </g>
        </g>
      </g>
    </g>
  </g>
  <path
     fill="none"
     stroke-width="2.5512"
     stroke-linecap="butt"
     stroke-linejoin="miter"
     stroke="rgb(81.176758%, 81.176758%, 81.176758%)"
     stroke-opacity="1"
     stroke-miterlimit="10"
     d="M -2.408969 11.338656 C -2.408969 13.920687 -4.502719 16.014437 -7.08475 16.014437 C -9.670687 16.014437 -11.764437 13.920687 -11.764437 11.338656 C -11.764437 8.756625 -9.670687 6.662875 -7.08475 6.662875 C -4.502719 6.662875 -2.408969 8.756625 -2.408969 11.338656 Z M -2.408969 11.338656 "
     transform="matrix(1, 0, 0, -1, 34.866, 34.866)"
     id="path214" />
  <g
     clip-path="url(#clip-23)"
     id="g218">
    <path
       fill="none"
       stroke-width="2.5512"
       stroke-linecap="butt"
       stroke-linejoin="miter"
       stroke="#cfcfcf"
       stroke-opacity="1"
       stroke-miterlimit="10"
       d="m 17.149625,5.100375 c 0,2.585937 -2.09375,4.679687 -4.675781,4.679687 -2.585938,0 -4.679688,-2.09375 -4.679688,-4.679687 0,-2.582031 2.09375,-4.675781 4.679688,-4.675781 2.582031,0 4.675781,2.09375 4.675781,4.675781 z m 0,0"
       transform="matrix(1,0,0,-1,34.866,34.866)"
       id="path216" />
  </g>
  <g
     clip-path="url(#clip-24)"
     id="g222">
    <path
       fill="none"
       stroke-width="2.5512"
       stroke-linecap="butt"
       stroke-linejoin="miter"
       stroke="#cfcfcf"
       stroke-opacity="1"
       stroke-miterlimit="10"
       d="m -0.991,-11.055875 c 0,2.582031 -2.09375,4.679687 -4.679687,4.679687 -2.582032,0 -4.675782,-2.097656 -4.675782,-4.679687 0,-2.582031 2.09375,-4.675781 4.675782,-4.675781 2.585937,0 4.679687,2.09375 4.679687,4.675781 z m 0,0"
       transform="matrix(1,0,0,-1,34.866,34.866)"
       id="path220" />
  </g>
  <g
     clip-path="url(#clip-25)"
     id="g226">
    <path
       fill="none"
       stroke-width="2.5512"
       stroke-linecap="butt"
       stroke-linejoin="miter"
       stroke="#cfcfcf"
       stroke-opacity="1"
       stroke-miterlimit="10"
       d="m 28.344938,-0.0011875 c 0,15.6562495 -12.6875,28.3476565 -28.3437505,28.3476565 -15.6562495,0 -28.3476565,-12.691407 -28.3476565,-28.3476565 0,-15.6562505 12.691407,-28.3437505 28.3476565,-28.3437505 15.6562505,0 28.3437505,12.6875 28.3437505,28.3437505 z m 0,0"
       transform="matrix(1,0,0,-1,34.866,34.866)"
       id="path224" />
  </g>
</svg>
